<svg width="1920" height="320" viewBox="0 0 1920 320" fill="none" xmlns="http://www.w3.org/2000/svg">
<path fill-rule="evenodd" clip-rule="evenodd" d="M0 216L46.4 198C91.2 180 182.4 144 273.6 126C366.4 108 457.6 108 548.8 126C640 144 731.2 180 822.4 168C913.6 156 1006.4 96 1097.6 78C1188.8 60 1280 84 1371.2 78C1462.4 72 1553.6 36 1646.4 36C1737.6 36 1828.8 72 1873.6 90L1920 108V0H1873.6C1828.8 0 1737.6 0 1646.4 0C1553.6 0 1462.4 0 1371.2 0C1280 0 1188.8 0 1097.6 0C1006.4 0 913.6 0 822.4 0C731.2 0 640 0 548.8 0C457.6 0 366.4 0 273.6 0C182.4 0 91.2 0 46.4 0H0V216Z" fill="url(#paint0_linear)"/>
<path fill-rule="evenodd" clip-rule="evenodd" d="M0 115L80 163C160 211 320 307 480 317C640 326 800 250 960 211C1120 173 1280 173 1440 221C1600 269 1840 142 1920 190V0.000244141H1840C1760 0.000244141 1600 0.000244141 1440 0.000244141C1280 0.000244141 1120 0.000244141 960 0.000244141C800 0.000244141 640 0.000244141 480 0.000244141C320 0.000244141 160 0.000244141 80 0.000244141H0V115Z" fill="url(#paint1_linear)"/>
<path fill-rule="evenodd" clip-rule="evenodd" d="M0 320L80 274.285C160 228.571 320 137.143 480 144.762C640 152.381 800 259.047 960 274.285C1120 289.524 1280 213.333 1440 205.714C1600 198.095 1840 86.5238 1920 117V190V-0.000244141H1840C1760 -0.000244141 1600 -0.000244141 1440 -0.000244141C1280 -0.000244141 1120 -0.000244141 960 -0.000244141C800 -0.000244141 640 -0.000244141 480 -0.000244141C320 -0.000244141 160 -0.000244141 80 -0.000244141H0V320Z" fill="url(#paint2_linear)"/>
<defs>
<linearGradient id="paint0_linear" x1="59.5" y1="-9.83833e-05" x2="1928.5" y2="128" gradientUnits="userSpaceOnUse">
<stop stop-color="#4AC7E2" stop-opacity="0.59"/>
<stop offset="1" stop-color="#9013FE" stop-opacity="0.91"/>
</linearGradient>
<linearGradient id="paint1_linear" x1="19.4999" y1="16.0007" x2="1888.5" y2="388.501" gradientUnits="userSpaceOnUse">
<stop stop-color="#4AC7E2" stop-opacity="0.59"/>
<stop offset="1" stop-color="#7000FF" stop-opacity="0.66"/>
</linearGradient>
<linearGradient id="paint2_linear" x1="31.5" y1="31.9996" x2="1920" y2="472.499" gradientUnits="userSpaceOnUse">
<stop stop-color="#4AC7E2" stop-opacity="0.78"/>
<stop offset="1" stop-color="#7000FF" stop-opacity="0.33"/>
</linearGradient>
</defs>
</svg>
