<svg width="24" height="24" viewBox="0 0 24 24" fill="none" xmlns="http://www.w3.org/2000/svg"><rect width="24" height="24" fill="none" rx="0" ry="0"></rect><path fill-rule="evenodd" clip-rule="evenodd" d="M17.8284 5.13605C18.8047 4.15974 20.3876 4.15974 21.364 5.13605C22.3403 6.11236 22.3403 7.69528 21.364 8.67159L13.5355 16.5L11.1716 18.864C10.1953 19.8403 8.61235 19.8403 7.63604 18.864C6.65973 17.8877 6.65973 16.3048 7.63604 15.3284L16.0607 6.90382L17.8284 5.13605Z" fill="rgb(254, 195, 56)"></path><path fill-rule="evenodd" clip-rule="evenodd" d="M3.09778 14.3233C2.12147 13.347 2.12147 11.7641 3.09778 10.7878C4.07409 9.81146 5.65701 9.81146 6.63332 10.7878L8.90108 13.0555L11.1689 15.3233C12.1452 16.2996 12.1452 17.8825 11.1689 18.8588C10.1925 19.8352 8.60963 19.8352 7.63332 18.8588L6.33778 17.5633L3.27448 14.5L3.09778 14.3233Z" fill="rgb(137, 25, 248)"></path><path fill-rule="evenodd" clip-rule="evenodd" d="M3.09778 14.3233C2.12147 13.347 2.12147 11.7641 3.09778 10.7878C4.07409 9.81146 5.65701 9.81146 6.63332 10.7878L8.40108 12.5555L11.1689 15.3233C12.1452 16.2996 12.1452 17.8825 11.1689 18.8588C10.1925 19.8352 8.60963 19.8352 7.63332 18.8588L7.27448 18.5L3.27448 14.5L3.09778 14.3233Z" fill="White" fill-opacity="0.01"></path></svg>